# xmcd CD database file
#
# Track frame offsets:
#	150
#	13822
#	21840
#	33141
#	44616
#	58808
#	72218
#	85753
#	98407
#	110955
#	123252
#	134647
#	142670
#	156840
#	168962
#	178150
#	190612
#	204800
#	220765
#	233407
#	243762
#
# Disc length: 3411 seconds
#
# Revision: 0
# Processed by: cddbd v1.5.2PL0 Copyright (c) Steve Scherf et al.
# Submitted via: CDex 1.70beta2
#
DISCID=130d5115
DTITLE=John Kirby - Jazz Roads CD140 - Swing - John Kirby Vol.3 (1941-43)
DYEAR=2006
DGENRE=Jazz
TTITLE0=John Kirby And His Orchestra - Coquette
TTITLE1=John Kirby And His Orchestra - Royal Garden Blues
TTITLE2=John Kirby And His Orchestra - Close Shave
TTITLE3=John Kirby And His Orchestra - Bugler's Dilemma
TTITLE4=John Kirby And His Orchestra - It's Only A Paper Moon
TTITLE5=John Kirby And His Orchestra - Fifi's Rhapsody
TTITLE6=John Kirby And His Orchestra - Night Whispers
TTITLE7=John Kirby And His Orchestra - Tweed Me
TTITLE8=John Kirby And His Orchestra - Move Over
TTITLE9=John Kirby And His Orchestra - Wondering Where
TTITLE10=John Kirby And His Orchestra - Schubert's Serenade
TTITLE11=John Kirby And His Orchestra - Toselli's Serenade
TTITLE12=John Kirby And His Orchestra - Keep Smilin'
TTITLE13=John Kirby And His Orchestra - Comin' Back
TTITLE14=John Kirby And His Orchestra - No Blues At All
TTITLE15=John Kirby And His Orchestra - St. Louis Blues
TTITLE16=John Kirby And His Orchestra - Do You Savvy
TTITLE17=John Kirby And His Orchestra - Tunisian Trail
TTITLE18=John Kirby And His Orchestra - 9:20 Special
TTITLE19=John Kirby And His Orchestra - Crossroads
TTITLE20=John Kirby And His Orchestra - Can't We Be Friends
EXTD=YEAR: 2006
EXTT0=
EXTT1=
EXTT2=
EXTT3=
EXTT4=
EXTT5=
EXTT6=
EXTT7=
EXTT8=
EXTT9=
EXTT10=
EXTT11=
EXTT12=
EXTT13=
EXTT14=
EXTT15=
EXTT16=
EXTT17=
EXTT18=
EXTT19=
EXTT20=
PLAYORDER=
